<?xml version="1.0" encoding="UTF-8"?>
<!DOCTYPE svg PUBLIC "-//W3C//DTD SVG 1.1//EN" "http://www.w3.org/Graphics/SVG/1.1/DTD/svg11.dtd">
<svg version="1.1" xmlns="http://www.w3.org/2000/svg" xmlns:xlink="http://www.w3.org/1999/xlink" x="0px" y="0px" width="100" height="100" viewBox="0, 0, 100, 100">
  <g id="Layer 1">
    <path d="M50.5,95.5 C25.647,95.5 5.5,75.353 5.5,50.5 C5.5,25.647 25.647,5.5 50.5,5.5 C75.353,5.5 95.5,25.647 95.5,50.5 C95.5,75.353 75.353,95.5 50.5,95.5 z" fill-opacity="0" stroke="#000000" stroke-width="5"/>
    <path d="M21.469,43.672 L42.242,43.672 C42.794,43.672 43.242,44.12 43.242,44.672 L43.242,56.328 C43.242,56.88 42.794,57.328 42.242,57.328 L21.469,57.328 C20.916,57.328 20.469,56.88 20.469,56.328 L20.469,44.672 C20.469,44.12 20.916,43.672 21.469,43.672 z" fill-opacity="0" stroke="#000000" stroke-width="2"/>
    <path d="M58.703,43.672 L79.477,43.672 C80.029,43.672 80.477,44.12 80.477,44.672 L80.477,56.328 C80.477,56.88 80.029,57.328 79.477,57.328 L58.703,57.328 C58.151,57.328 57.703,56.88 57.703,56.328 L57.703,44.672 C57.703,44.12 58.151,43.672 58.703,43.672 z" fill-opacity="0" stroke="#000000" stroke-width="2"/>
    <path d="M43.242,48.482 L57.703,48.482" fill-opacity="0" stroke="#000000" stroke-width="5"/>
    <path d="M80.477,48.482 L95.5,48.482" fill-opacity="0" stroke="#000000" stroke-width="5"/>
    <path d="M20.469,48.482 L5.5,48.482" fill-opacity="0" stroke="#000000" stroke-width="5"/>
    <path d="M50.5,48.482 L43.242,76.75 L54,77.25 L50.5,95.5" fill-opacity="0" stroke="#000000" stroke-width="5"/>
    <g>
      <path d="M49.997,40.76 C57.751,40.76 64.038,34.475 64.038,26.719 C64.038,18.967 57.751,12.688 49.997,12.688 C42.241,12.688 35.954,18.967 35.954,26.719 C35.954,34.475 42.241,40.76 49.997,40.76 M33.546,26.719 C33.546,17.635 40.913,10.276 49.997,10.276 C59.087,10.276 66.454,17.635 66.454,26.719 C66.454,35.803 59.087,43.172 49.997,43.172 C40.913,43.172 33.546,35.803 33.546,26.719" fill="#000000"/>
      <path d="M48.171,31.743 L51.523,31.735 L51.523,29.135 C51.523,28.422 51.855,27.75 52.732,27.17 C53.611,26.602 56.076,25.422 56.076,22.342 C56.076,19.258 53.492,17.143 51.32,16.686 C49.148,16.243 46.791,16.54 45.123,18.366 C43.623,20.007 43.316,21.3 43.316,24.159 L46.668,24.159 L46.668,23.491 C46.668,21.979 46.844,20.366 49.016,19.923 C50.207,19.679 51.321,20.056 51.981,20.704 C52.741,21.448 52.749,23.112 51.536,23.931 L49.649,25.212 C48.547,25.931 48.172,26.72 48.172,27.866 L48.172,31.743 z" fill="#000000"/>
      <path d="M48.149,33.257 L51.549,33.257 L51.549,36.71 L48.149,36.71 z" fill="#000000"/>
    </g>
  </g>
  <defs/>
</svg>
