<?xml version="1.0" encoding="UTF-8"?>
<!DOCTYPE svg PUBLIC "-//W3C//DTD SVG 1.1//EN" "http://www.w3.org/Graphics/SVG/1.1/DTD/svg11.dtd">
<svg version="1.1" xmlns="http://www.w3.org/2000/svg" xmlns:xlink="http://www.w3.org/1999/xlink" x="0px" y="0px" width="100" height="100" viewBox="0, 0, 100, 100">
  <g id="Layer 1">
    <g>
      <path d="M50,95 C25.147,95 5,74.853 5,50 C5,25.147 25.147,5 50,5 C74.853,5 95,25.147 95,50 C95,74.853 74.853,95 50,95 z" fill="#FFFFFF"/>
      <path d="M50,95 C25.147,95 5,74.853 5,50 C5,25.147 25.147,5 50,5 C74.853,5 95,25.147 95,50 C95,74.853 74.853,95 50,95 z" fill-opacity="0" stroke="#000000" stroke-width="8" stroke-linecap="round"/>
    </g>
    <path d="M17.57,39.629 L45,39.629 C45.552,39.629 46,40.077 46,40.629 L46,60 C46,60.552 45.552,61 45,61 L17.57,61 C17.018,61 16.57,60.552 16.57,60 L16.57,40.629 C16.57,40.077 17.018,39.629 17.57,39.629 z" fill-opacity="0" stroke="#000000" stroke-width="4"/>
    <path d="M54.668,39.629 L82.098,39.629 C82.65,39.629 83.098,40.077 83.098,40.629 L83.098,60 C83.098,60.552 82.65,61 82.098,61 L54.668,61 C54.116,61 53.668,60.552 53.668,60 L53.668,40.629 C53.668,40.077 54.116,39.629 54.668,39.629 z" fill-opacity="0" stroke="#000000" stroke-width="4"/>
    <g>
      <path d="M33.423,72.342 C33.423,72.342 39.473,80.4 50,80.4 C60.527,80.4 66.2,72.6 66.2,72.6" fill="#FFFFFF"/>
      <path d="M33.423,72.342 C33.423,72.342 39.473,80.4 50,80.4 C60.527,80.4 66.2,72.6 66.2,72.6" fill-opacity="0" stroke="#000000" stroke-width="4" stroke-linecap="round"/>
    </g>
  </g>
  <defs/>
</svg>
